<?xml version="1.0" encoding="utf-8" ?>
<svg xmlns="http://www.w3.org/2000/svg" xmlns:xlink="http://www.w3.org/1999/xlink" width="1050" height="900">
	<path fill="#010002" fill-opacity="0.015686275" d="M4.59759 0L164.651 0C162.791 0.572262 12.0281 1.37766 4.59759 0Z"/>
	<path fill="#F79833" d="M30.7727 645.694C31.6652 645.593 32.5429 645.535 33.4417 645.599C35.2035 645.725 36.6849 646.545 37.7651 647.947C38.5852 649.012 38.8781 650.256 38.6171 651.575C38.2218 653.573 37.1265 654.468 35.5227 655.588C34.7006 655.722 33.8831 655.864 33.0469 655.852C31.4344 655.83 30.149 655.252 29.0895 654.024C28.1672 652.956 27.821 651.703 27.9538 650.306C28.1587 648.152 29.2025 647.065 30.7727 645.694Z"/>
	<path fill="#212B3D" d="M876.182 141.522C876.711 141.499 877.225 141.47 877.753 141.537C879.545 141.762 881.096 142.626 882.081 144.162Q882.224 144.382 882.344 144.616Q882.464 144.849 882.56 145.094Q882.657 145.338 882.728 145.591Q882.799 145.844 882.844 146.102Q882.89 146.361 882.909 146.623Q882.928 146.885 882.921 147.148Q882.914 147.41 882.881 147.671Q882.847 147.931 882.788 148.187C882.342 150.124 881.05 151.231 879.455 152.265C878.398 152.327 877.277 152.412 876.233 152.193C874.863 151.905 873.571 150.924 872.834 149.744C872.093 148.558 871.943 147.311 872.307 145.967C872.903 143.774 874.319 142.653 876.182 141.522Z"/>
	<path fill="#010002" fill-opacity="0.011764706" d="M559.209 0L741.359 0C740.076 0.656719 738.197 0.507239 736.763 0.519863L613.746 0.529137L578.825 0.521181C572.487 0.520723 565.427 1.11382 559.209 0Z"/>
	<path fill="#212B3D" d="M1036.46 305.896C1038.22 305.56 1039.89 305.329 1041.55 306.191C1043.32 307.11 1044.58 308.773 1045.16 310.667C1045.68 312.349 1045.43 314.337 1044.54 315.854C1043.44 317.738 1041.96 318.264 1039.92 318.719C1039.46 318.881 1038.99 318.913 1038.5 318.903C1037.12 318.877 1035.37 318.479 1034.41 317.425C1032.93 315.815 1032.67 313.532 1032.85 311.439C1033.08 308.751 1034.53 307.562 1036.46 305.896Z"/>
	<path fill="#010002" fill-opacity="0.015686275" d="M255.145 0L550.688 0C546.254 1.31214 509.273 0.381876 501.85 0.381067L355.846 0.39498L283.616 0.726802C275.09 0.711946 263.164 1.84598 255.145 0Z"/>
	<path fill="#010002" fill-opacity="0.027450981" d="M755.854 0L1036.98 0L1036.37 0.430671C1030.53 0.784237 1024.61 0.509545 1018.76 0.548042C1002.75 0.653322 986.775 0.351507 970.773 0.289656L860.414 0.421593L781.852 0.308479C775.373 0.271103 761.525 1.24384 755.854 0Z"/>
	<path fill="#212B3D" d="M133.725 117.513C134.939 117.477 136.21 117.4 137.415 117.564C139.373 117.831 141.315 119.308 142.385 120.92Q142.597 121.234 142.775 121.569Q142.953 121.904 143.093 122.256Q143.234 122.607 143.336 122.972Q143.438 123.338 143.501 123.711Q143.563 124.085 143.585 124.464Q143.607 124.842 143.589 125.221Q143.57 125.599 143.511 125.974Q143.452 126.348 143.353 126.714C142.582 129.682 140.788 131.084 138.254 132.574C137.22 132.623 136.148 132.692 135.116 132.591C133.182 132.401 131.144 131.165 129.985 129.623C128.741 127.967 128.423 125.897 128.766 123.887C129.301 120.749 131.285 119.222 133.725 117.513Z"/>
	<path fill="#212B3D" d="M209.077 7.39661C211.605 9.87071 212.575 16.198 214.343 19.5669C218.322 20.7045 222.247 21.8791 226.144 23.28C221.859 24.9962 217.472 26.4738 213.123 28.0176C212.186 31.8159 211.165 35.5412 209.951 39.2606C209.833 39.2036 209.706 39.1614 209.597 39.0897C207.425 37.671 206.379 29.769 205.833 27.2965L193.581 23.6054C197.339 21.6771 201.691 20.5351 205.707 19.229C207.222 15.415 208.091 11.3724 209.077 7.39661Z"/>
	<path fill="#212B3D" d="M741.216 20.1099C744.337 19.8839 747.056 20.0116 750 21.2634Q750.664 21.5392 751.296 21.8834Q751.928 22.2276 752.52 22.6363Q753.112 23.0451 753.658 23.514Q754.203 23.9828 754.697 24.5065Q755.19 25.0303 755.625 25.603Q756.061 26.1757 756.434 26.7911Q756.806 27.4065 757.112 28.0577Q757.418 28.709 757.654 29.3888C758.911 32.9405 758.743 37.0366 757.039 40.413C754.783 44.8843 751.2 46.8478 746.685 48.4259C743.235 48.7332 740.229 48.5115 737.17 46.757Q736.524 46.3863 735.919 45.9524Q735.314 45.5184 734.755 45.0256Q734.197 44.5327 733.691 43.986Q733.185 43.4393 732.737 42.8444Q732.289 42.2494 731.904 41.6123Q731.518 40.9752 731.198 40.3024Q730.879 39.6295 730.629 38.9279Q730.379 38.2263 730.201 37.503C729.264 33.7262 729.808 29.5362 731.915 26.2351C734.064 22.8688 737.371 20.9165 741.216 20.1099Z"/>
	<path fill="#212B3D" d="M29.2711 425.13C31.7389 431.462 33.6155 438.016 36.3225 444.252C40.7915 445.617 45.2479 446.988 49.7771 448.143C51.6598 448.692 53.5802 449.188 55.4094 449.897C53.5445 450.514 51.0433 451.02 49.4447 452.144C44.8832 454.343 39.73 455.05 35.1983 457.482L29.0334 476.264C26.5768 469.9 24.1512 463.572 22.1644 457.043C15.9361 454.783 9.72059 452.402 3.38923 450.449Q12.8568 447.349 22.2791 444.115C24.8084 437.88 26.7695 431.394 29.2711 425.13Z"/>
	<path fill="#212B3D" d="M949.72 235.638Q950.214 235.561 950.71 235.505C954.767 235.064 959.197 236.494 962.293 239.14C965.718 242.067 967.662 246.467 967.894 250.935Q967.939 251.836 967.894 252.738Q967.848 253.639 967.712 254.532Q967.577 255.424 967.352 256.298Q967.128 257.173 966.817 258.02Q966.506 258.867 966.112 259.679Q965.718 260.491 965.244 261.259Q964.771 262.028 964.222 262.745Q963.674 263.462 963.057 264.12C959.39 267.965 954.994 269.016 949.895 269.188C946.727 268.788 943.816 267.844 941.176 266.009C937.476 263.438 935.078 259.464 934.322 255.042C933.564 250.607 934.791 246.031 937.428 242.419C940.597 238.079 944.57 236.432 949.72 235.638Z"/>
	<path fill="#F79833" d="M969.106 584.064C969.179 583.954 969.255 583.846 969.326 583.734C971.898 579.687 975.249 564.677 978.269 563.047C979.405 563.723 979.755 564.555 980.246 565.73C981.697 569.204 982.323 573.14 983.471 576.742C984.839 581.033 987.359 585.942 988.115 590.295C988.143 590.455 988.114 590.62 988.113 590.782C995.037 592.93 1010.18 596.124 1015.52 599.625C1015.35 599.754 1015.19 599.887 1015.02 600.013C1008.67 604.693 992.915 605.744 988.236 611.42C986.352 613.706 985.61 616.82 984.72 619.586C983.033 624.83 981.316 633.017 977.608 637.049C978.006 634.354 970.1 613.572 968.099 611.023C967.638 610.435 967.653 610.47 967.217 610.023C966.062 609.067 963.99 607.92 962.474 608.035C962.326 608.046 962.184 608.098 962.038 608.13C961.972 607.998 961.928 607.852 961.838 607.735C959.892 605.217 942.87 599.556 939.392 598.94C948.709 596.843 959.246 593.892 967.924 589.948C968.334 589.518 968.68 589.028 968.971 588.509C969.894 586.861 969.601 585.735 969.106 584.064Z"/>
	<path fill="#E5E5E1" d="M49.7771 448.143L49.9166 447.66C52.285 439.162 53.1142 430.11 55.1724 421.495C59.2549 404.406 65.0174 387.609 71.3868 371.244Q78.9365 352.239 88.0526 333.934Q97.1687 315.629 107.787 298.153C157.345 214.892 228.819 140.279 313.165 91.8848C363.36 63.0852 422.35 43.3051 480.075 38.2439C502.76 36.255 530.63 37.0461 553.258 39.7026C574.044 42.1429 594.305 46.7406 614.464 52.2277C635.412 57.93 655.735 66.2206 675.344 75.4615C685.418 80.2092 695.466 84.9126 705.183 90.3716C792.376 139.355 867.971 219.773 917.284 306.221C955.352 372.956 981.279 451.032 976.215 528.662C975.203 544.17 972.906 555.994 970.764 571.069C970.272 574.527 968.028 583.313 968.683 586.137C969.129 585.207 969.238 585.072 969.106 584.064C969.601 585.735 969.894 586.861 968.971 588.509C968.68 589.028 968.334 589.518 967.924 589.948C959.246 593.892 948.709 596.843 939.392 598.94C942.87 599.556 959.892 605.217 961.838 607.735C961.928 607.852 961.972 607.998 962.038 608.13C959.593 624.139 946.073 650.869 937.611 665.263C934.55 670.47 928.757 676.829 927.501 682.586L927.751 682.883C928.426 683.678 928.98 684.25 929.888 684.796L929.949 685.499C925.03 687.51 919.442 690.506 914.32 691.692C914.889 693.937 912.11 701.724 910.774 703.768C910.304 704.488 909.694 704.791 908.916 705.081C908.112 707.873 901.296 714.239 899.098 716.65C874.044 744.134 850.73 761.783 818.237 779.749C771.705 805.476 720.242 822.012 668.866 834.806C654.996 838.26 640.243 843.167 625.849 841.924Q593.295 855.761 561.069 870.348C545.864 877.308 530.744 885.014 515.254 891.281C489.618 880.554 464.536 868.068 439.212 856.584C428.64 851.789 418.052 846.712 407.148 842.717C405.744 843.851 404.267 844.952 402.404 845.099C394.578 845.717 384.915 842.755 377.136 841.315C359.658 838.08 342.664 833.291 325.619 828.321C276.47 813.988 227.354 795.541 183.519 768.722C175.531 763.835 167.192 759.123 160.192 752.856C156.409 754.607 152.765 755.563 148.544 754.93Q147.739 754.814 146.95 754.617Q146.161 754.42 145.396 754.144Q144.631 753.868 143.898 753.516Q143.165 753.164 142.471 752.74Q141.777 752.315 141.13 751.822Q140.483 751.329 139.89 750.774Q139.296 750.218 138.762 749.604Q138.227 748.991 137.758 748.327C134.455 743.632 134.424 738.697 135.403 733.304C131.938 729.172 127.563 725.723 123.705 721.953Q115.306 713.611 108.136 704.191C61.6172 643.561 39.9203 574.432 43.6922 498.088C44.4585 482.58 47.4269 467.496 49.4447 452.144C51.0433 451.02 53.5445 450.514 55.4094 449.897C53.5802 449.188 51.6598 448.692 49.7771 448.143Z"/>
	<path fill="#F79833" d="M805.976 263.874C808.187 266.208 809.112 271.7 810.49 274.823C814.297 276.534 818.588 277.546 822.584 278.765C818.617 279.87 814.784 281.273 811.131 283.176C811.068 283.289 811.006 283.402 810.942 283.514C808.921 287.023 807.717 290.861 806.384 294.667C804.688 290.809 803.751 286.764 801.742 283.008C797.936 281.357 793.75 280.226 789.81 278.906C793.899 277.308 798.225 276.248 802.352 274.677L805.976 263.874Z"/>
	<path fill="#F79833" d="M660.651 185.031C662.859 187.275 664.137 193.823 665.424 196.99L677.946 200.859C673.84 202.136 669.703 203.319 665.803 205.155C663.828 208.488 662.59 212.001 661.296 215.631L661.085 215.656C659.855 214.988 657.974 206.904 657.342 204.987Q650.796 203.089 644.399 200.738Q650.444 198.917 656.372 196.744C658.098 193.04 659.275 188.888 660.651 185.031Z"/>
	<path fill="#212B3D" d="M909.654 664.779C909.89 665.021 910.244 665.357 910.453 665.648C912.112 667.947 915.841 677.341 915.32 680.217C919.317 680.83 923.1 682.706 927.127 683.374L927.501 682.586L927.751 682.883C928.426 683.678 928.98 684.25 929.888 684.796L929.949 685.499C925.03 687.51 919.442 690.506 914.32 691.692C914.889 693.937 912.11 701.724 910.774 703.768C910.304 704.488 909.694 704.791 908.916 705.081C908.97 704.909 909.046 704.743 909.076 704.565C909.584 701.566 906.322 693.182 904.485 690.846C900.072 688.258 893.569 687.03 888.681 685.123C893.793 683.907 899.977 682.917 904.514 680.234C906.654 677.804 909.768 668.171 909.654 664.779Z"/>
	<path fill="#F79833" d="M424.74 117.039Q426.43 116.898 428.114 117.093Q429.798 117.289 431.41 117.813Q432.058 118.023 432.682 118.296Q433.305 118.569 433.899 118.902Q434.493 119.236 435.051 119.626Q435.608 120.017 436.125 120.461Q436.641 120.905 437.111 121.398Q437.58 121.891 437.999 122.428Q438.417 122.966 438.78 123.542Q439.144 124.118 439.448 124.727C441.14 128.147 441.482 132.285 440.057 135.861C438.14 140.672 434.542 142.676 430.018 144.509C427.32 144.735 424.952 144.442 422.447 143.353Q421.759 143.055 421.107 142.688Q420.454 142.32 419.843 141.886Q419.232 141.453 418.669 140.958Q418.107 140.463 417.599 139.912Q417.091 139.361 416.643 138.76Q416.195 138.16 415.812 137.516Q415.43 136.871 415.116 136.191Q414.802 135.51 414.561 134.801Q414.335 134.119 414.181 133.418Q414.026 132.717 413.943 132.003Q413.86 131.29 413.851 130.572Q413.841 129.854 413.905 129.139Q413.968 128.423 414.105 127.718Q414.241 127.013 414.448 126.326Q414.655 125.638 414.931 124.975Q415.208 124.312 415.55 123.681C417.658 119.865 420.727 118.19 424.74 117.039Z"/>
	<path fill="#212B3D" d="M886.28 409.298C889.915 409.174 893.006 409.385 896.337 411.088Q897.065 411.459 897.752 411.903Q898.438 412.347 899.075 412.86Q899.711 413.372 900.292 413.948Q900.872 414.524 901.39 415.156Q901.908 415.788 902.358 416.471Q902.808 417.153 903.186 417.879Q903.563 418.604 903.863 419.364Q904.164 420.125 904.384 420.912C905.589 425.212 905.027 430.067 902.711 433.904C900.078 438.267 896.042 440.366 891.25 441.495C887.586 441.68 884.343 441.482 881.009 439.733Q880.291 439.351 879.616 438.897Q878.941 438.443 878.316 437.923Q877.692 437.402 877.123 436.82Q876.555 436.238 876.05 435.601Q875.544 434.964 875.107 434.278Q874.669 433.592 874.305 432.865Q873.94 432.138 873.651 431.378Q873.363 430.617 873.154 429.831C871.983 425.59 872.449 420.917 874.714 417.113C877.359 412.672 881.462 410.563 886.28 409.298Z"/>
	<path fill="#212B3D" d="M135.403 733.304C137.754 728.723 140.715 725.139 145.823 723.502Q146.61 723.254 147.418 723.085Q148.225 722.915 149.045 722.825Q149.866 722.735 150.691 722.726Q151.516 722.716 152.338 722.787Q153.16 722.858 153.971 723.009Q154.783 723.16 155.575 723.39Q156.368 723.619 157.134 723.924Q157.901 724.23 158.634 724.609Q159.376 725.001 160.075 725.466Q160.773 725.932 161.42 726.467Q162.068 727.001 162.657 727.599Q163.246 728.197 163.771 728.852Q164.296 729.507 164.752 730.212Q165.207 730.917 165.588 731.665Q165.97 732.413 166.272 733.196Q166.575 733.979 166.796 734.789C168 739.139 167.194 743.685 164.91 747.533C163.659 749.641 161.985 751.219 160.192 752.856C156.409 754.607 152.765 755.563 148.544 754.93Q147.739 754.814 146.95 754.617Q146.161 754.42 145.396 754.144Q144.631 753.868 143.898 753.516Q143.165 753.164 142.471 752.74Q141.777 752.315 141.13 751.822Q140.483 751.329 139.89 750.774Q139.296 750.218 138.762 749.604Q138.227 748.991 137.758 748.327C134.455 743.632 134.424 738.697 135.403 733.304Z"/>
	<path fill="#F79833" d="M258.59 190.526C261.338 192.954 264.552 207.123 266.121 211.403C273.907 213.768 281.607 216.393 289.432 218.631C281.911 221.28 273.748 223.56 266.661 227.192C263.592 233.492 261.646 240.754 259.179 247.352L258.783 247.43C255.702 242.954 253.059 232.178 251.252 226.744C244.069 223.742 236.622 221.407 229.41 218.458C236.206 215.674 243.631 213.8 250.647 211.565C254.066 205.225 256.094 197.323 258.59 190.526Z"/>
	<path fill="#FEFEFE" d="M162.654 377.542C166.638 377.155 170.261 377.148 173.995 378.838C178.187 380.736 181.299 384.342 182.88 388.633C184.413 392.796 184.405 397.396 182.5 401.434C180.049 406.628 175.86 409.043 170.715 410.945C166.77 411.53 163.104 411.433 159.39 409.809Q158.62 409.471 157.888 409.058Q157.156 408.645 156.469 408.16Q155.782 407.676 155.146 407.125Q154.511 406.574 153.934 405.962Q153.358 405.351 152.845 404.684Q152.332 404.018 151.889 403.303Q151.445 402.589 151.076 401.834Q150.706 401.078 150.414 400.29Q150.112 399.503 149.89 398.689Q149.668 397.876 149.528 397.044Q149.388 396.213 149.332 395.372Q149.276 394.53 149.304 393.688Q149.332 392.845 149.444 392.009Q149.556 391.173 149.751 390.353Q149.946 389.533 150.222 388.736Q150.498 387.939 150.852 387.174C153.249 382.035 157.511 379.303 162.654 377.542Z"/>
	<path fill="#212B3D" d="M567.783 245.501C569.487 247.138 576.643 266.791 578.196 270.384C587.213 270.688 596.239 270.819 605.259 271.013Q594.171 279.028 583.345 287.395C585.489 296.483 588.282 305.433 590.712 314.452C583.86 308.594 576.323 303.699 568.821 298.73L568.064 298.539C564.198 299.402 549.156 310.772 544.902 313.76Q549.143 300.668 552.737 287.383C545.948 281.723 538.479 276.568 531.358 271.322C540.3 271.336 549.279 270.777 558.204 270.253Q563.458 258.057 567.783 245.501Z"/>
	<path fill="#212B3D" d="M504.69 209.336C504.939 209.393 504.755 209.333 505.114 209.751C501.244 213.551 497.02 217.046 493.422 221.113C481.291 234.829 473.521 253.271 471.623 271.435Q471.502 272.546 471.409 273.659Q471.315 274.773 471.249 275.888Q471.183 277.004 471.144 278.121Q471.106 279.237 471.095 280.355Q471.083 281.472 471.099 282.59Q471.116 283.707 471.159 284.823Q471.203 285.94 471.274 287.055Q471.345 288.17 471.444 289.284Q471.542 290.397 471.668 291.507Q471.793 292.617 471.946 293.724Q472.099 294.831 472.279 295.934Q472.459 297.037 472.666 298.135Q472.873 299.233 473.107 300.326Q473.341 301.418 473.602 302.505Q473.863 303.591 474.15 304.671Q474.438 305.751 474.751 306.824Q475.065 307.896 475.405 308.961Q475.745 310.025 476.111 311.081Q476.477 312.136 476.869 313.183Q477.261 314.229 477.679 315.266Q478.096 316.302 478.539 317.328Q478.982 318.354 479.449 319.369Q479.917 320.384 480.41 321.387Q480.902 322.39 481.419 323.38Q481.937 324.371 482.478 325.348Q483.019 326.326 483.584 327.29Q484.149 328.254 484.738 329.204Q485.326 330.153 485.938 331.088Q486.55 332.023 487.184 332.943Q487.819 333.863 488.476 334.767Q489.133 335.671 489.812 336.558Q490.49 337.445 491.191 338.316Q491.894 339.187 492.619 340.041Q493.344 340.894 494.09 341.73Q494.836 342.565 495.602 343.381Q496.368 344.198 497.155 344.995Q497.941 345.792 498.747 346.569Q499.553 347.346 500.379 348.103Q501.204 348.86 502.048 349.596Q502.891 350.332 503.753 351.047Q504.615 351.762 505.494 352.455Q506.374 353.148 507.27 353.819Q508.167 354.49 509.079 355.138Q509.992 355.787 510.921 356.413Q511.849 357.038 512.793 357.64Q513.737 358.242 514.696 358.821Q515.655 359.399 516.627 359.954Q517.6 360.508 518.587 361.038Q519.573 361.568 520.572 362.074Q521.571 362.579 522.583 363.059Q523.594 363.539 524.617 363.994Q525.64 364.449 526.674 364.879Q527.708 365.308 528.753 365.711Q529.797 366.115 530.851 366.492Q531.906 366.869 532.969 367.22Q534.032 367.571 535.104 367.895Q536.175 368.219 537.255 368.517Q538.334 368.814 539.421 369.084Q540.507 369.355 541.6 369.598Q542.693 369.841 543.791 370.057Q544.89 370.273 545.994 370.462Q547.097 370.651 548.205 370.812Q549.313 370.973 550.425 371.106Q551.536 371.239 552.651 371.345C577.805 373.697 601.708 365.222 620.968 349.207C614.433 362.105 602.736 374.877 591.129 383.175Q586.614 386.373 581.756 389.022Q576.899 391.671 571.765 393.735Q570.661 394.186 569.547 394.61Q568.432 395.034 567.308 395.43Q566.183 395.827 565.049 396.195Q563.915 396.564 562.772 396.905Q561.63 397.246 560.479 397.558Q559.328 397.871 558.17 398.155Q557.012 398.44 555.848 398.696Q554.683 398.952 553.512 399.179Q552.342 399.406 551.166 399.605Q549.99 399.803 548.81 399.973Q547.63 400.142 546.446 400.283Q545.262 400.424 544.074 400.535Q542.887 400.647 541.698 400.729Q540.508 400.812 539.317 400.865Q538.126 400.918 536.934 400.942Q535.741 400.966 534.549 400.961Q533.357 400.956 532.165 400.921Q530.973 400.887 529.782 400.823Q528.592 400.759 527.403 400.666Q526.214 400.573 525.028 400.452Q523.842 400.33 522.659 400.178Q521.476 400.027 520.297 399.847Q519.119 399.667 517.945 399.459Q516.771 399.25 515.602 399.012Q514.434 398.775 513.271 398.509Q512.109 398.242 510.953 397.948Q509.798 397.653 508.65 397.331Q507.502 397.008 506.363 396.657Q505.223 396.306 504.092 395.927Q502.962 395.549 501.841 395.142Q500.719 394.736 499.609 394.302Q498.498 393.869 497.398 393.408Q496.276 392.935 495.165 392.435Q494.055 391.935 492.957 391.407Q491.859 390.88 490.775 390.325Q489.691 389.77 488.621 389.189Q487.551 388.607 486.495 387.999Q485.44 387.391 484.4 386.757Q483.36 386.123 482.336 385.464Q481.312 384.804 480.305 384.12Q479.298 383.435 478.308 382.725Q477.318 382.016 476.346 381.282Q475.374 380.548 474.421 379.79Q473.467 379.032 472.533 378.251Q471.598 377.47 470.684 376.665Q469.769 375.861 468.874 375.035Q467.98 374.208 467.106 373.359Q466.232 372.511 465.38 371.64Q464.528 370.77 463.697 369.879Q462.867 368.988 462.059 368.077Q461.25 367.166 460.465 366.235Q459.68 365.304 458.918 364.353Q458.156 363.403 457.418 362.434Q456.68 361.465 455.966 360.478Q455.252 359.491 454.563 358.487Q453.874 357.483 453.21 356.461Q452.546 355.44 451.908 354.403Q451.269 353.366 450.657 352.313Q450.044 351.26 449.458 350.192Q448.872 349.124 448.312 348.042Q447.753 346.96 447.22 345.865Q446.688 344.769 446.183 343.661Q445.677 342.552 445.2 341.432Q444.723 340.311 444.273 339.179Q443.826 338.058 443.406 336.926Q442.986 335.794 442.594 334.652Q442.202 333.511 441.838 332.36Q441.473 331.209 441.137 330.05Q440.801 328.89 440.493 327.723Q440.185 326.556 439.906 325.381Q439.626 324.207 439.376 323.026Q439.125 321.845 438.903 320.659Q438.681 319.472 438.488 318.28Q438.294 317.089 438.13 315.893Q437.966 314.697 437.831 313.497Q437.696 312.297 437.591 311.095Q437.485 309.892 437.408 308.688Q437.332 307.483 437.285 306.277Q437.238 305.07 437.22 303.863Q437.202 302.656 437.214 301.449Q437.225 300.242 437.266 299.035Q437.307 297.829 437.377 296.624Q437.447 295.419 437.547 294.216Q437.646 293.012 437.775 291.812Q437.904 290.612 438.062 289.415Q438.219 288.218 438.406 287.026Q438.593 285.833 438.809 284.645Q439.025 283.457 439.27 282.275Q439.514 281.093 439.788 279.917Q440.061 278.742 440.363 277.573Q440.665 276.404 440.995 275.243Q441.325 274.082 441.683 272.929Q442.042 271.776 442.428 270.632Q442.814 269.489 443.228 268.355Q443.642 267.221 444.083 266.097Q444.524 264.974 444.993 263.861C456.827 236.276 477.639 220.214 504.69 209.336Z"/>
	<path fill="#212B3D" d="M283.192 356.244C316.208 370.393 348.675 386.027 381.37 400.92L436.413 425.62C451.221 432.239 466.377 438.639 480.256 447.086C492.964 454.82 504.237 463.822 515.527 473.443C541.921 446.827 579.859 432.451 613.493 417.512L666.606 393.513L716.641 370.831C727.054 366.091 737.456 361.051 748.081 356.817C748.029 370.11 747.76 383.445 748.052 396.734C734.445 401.626 720.475 405.326 706.643 409.5C653.087 425.659 592.359 442.303 546.275 474.541C534.968 482.452 524.849 491.439 515.144 501.219C468.184 451.503 398.881 431.61 335.288 412.726C317.864 407.552 300.539 401.365 282.99 396.735C283.297 383.235 283.17 369.745 283.192 356.244Z"/>
	<path fill="#212B3D" d="M224.029 380.13C230.628 381.739 237.624 384 244.381 384.579C243.414 398.812 244.082 413.401 244.091 427.684L244.13 505.98L243.833 747C263.758 755.303 283.278 764.559 303.007 773.316L438.68 834.31L489.576 857.673C496.608 860.965 508.616 867.603 515.423 869.523C523.549 866.587 531.741 861.977 539.651 858.349Q565.91 846.189 592.383 834.505L709.617 781.73Q748.629 764.475 787.415 746.719L787.331 384.951C793.966 383.757 800.553 382.35 806.973 380.272L807.032 760.188L677.948 818.208Q661.811 825.606 645.594 832.827C639.049 835.747 632.095 838.417 625.849 841.924Q593.295 855.761 561.069 870.348C545.864 877.308 530.744 885.014 515.254 891.281C489.618 880.554 464.536 868.068 439.212 856.584C428.64 851.789 418.052 846.712 407.148 842.717C399.748 838.911 391.977 835.753 384.413 832.281Q358.823 820.431 332.988 809.124L223.548 760.195C224.903 745.475 224.139 730.058 224.138 715.261L224.054 634.64L224.029 380.13Z"/>
	<path fill="#F79833" d="M244.381 384.579C249.194 384.411 277.437 394.534 282.99 396.735C300.539 401.365 317.864 407.552 335.288 412.726C398.881 431.61 468.184 451.503 515.144 501.219C516.634 538.178 515.732 575.488 515.635 612.48L515.705 777.753L515.767 844.358C515.755 851.307 514.639 863.257 515.423 869.523C508.616 867.603 496.608 860.965 489.576 857.673L438.68 834.31L303.007 773.316C283.278 764.559 263.758 755.303 243.833 747L244.13 505.98L244.091 427.684C244.082 413.401 243.414 398.812 244.381 384.579Z"/>
	<path fill="#FECB6F" d="M748.052 396.734C761.356 394.14 773.863 386.726 787.331 384.951L787.415 746.719Q748.629 764.475 709.617 781.73L592.383 834.505Q565.91 846.189 539.651 858.349C531.741 861.977 523.549 866.587 515.423 869.523C514.639 863.257 515.755 851.307 515.767 844.358L515.705 777.753L515.635 612.48C515.732 575.488 516.634 538.178 515.144 501.219C524.849 491.439 534.968 482.452 546.275 474.541C592.359 442.303 653.087 425.659 706.643 409.5C720.475 405.326 734.445 401.626 748.052 396.734Z"/>
</svg>
